<?xml version="1.0" encoding="UTF-8" standalone="no"?>
<svg
   width="1024"
   height="1024"
   viewBox="0 0 512 512"
   version="1.1"
   id="svg12"
   sodipodi:docname="logo-ai-whisperers.svg"
   inkscape:version="1.4 (86a8ad7, 2024-10-11)"
   xmlns:inkscape="http://www.inkscape.org/namespaces/inkscape"
   xmlns:sodipodi="http://sodipodi.sourceforge.net/DTD/sodipodi-0.dtd"
   xmlns:xlink="http://www.w3.org/1999/xlink"
   xmlns="http://www.w3.org/2000/svg"
   xmlns:svg="http://www.w3.org/2000/svg">
  <sodipodi:namedview
     id="namedview12"
     pagecolor="#ffffff"
     bordercolor="#000000"
     borderopacity="0.25"
     inkscape:showpageshadow="2"
     inkscape:pageopacity="0.0"
     inkscape:pagecheckerboard="0"
     inkscape:deskcolor="#d1d1d1"
     inkscape:zoom="0.41126654"
     inkscape:cx="958.01618"
     inkscape:cy="696.62852"
     inkscape:window-width="1920"
     inkscape:window-height="1009"
     inkscape:window-x="-8"
     inkscape:window-y="-8"
     inkscape:window-maximized="1"
     inkscape:current-layer="svg12" />
  <defs
     id="defs5">
    <linearGradient
       id="linearGradient43"
       x1="0%"
       y1="0%"
       x2="100%"
       y2="0%">
      <stop
         offset="0%"
         stop-color="#1B3CFF"
         id="stop41" />
      <stop
         offset="0.63822955"
         stop-color="#3BA6FF"
         id="stop42" />
      <stop
         offset="100%"
         stop-color="#8B5CF6"
         id="stop43" />
    </linearGradient>
    <inkscape:path-effect
       effect="offset"
       id="path-effect41"
       is_visible="true"
       lpeversion="1.3"
       linejoin_type="miter"
       unit="mm"
       offset="0.69765377"
       miter_limit="4"
       attempt_force_join="false"
       update_on_knot_move="true" />
    <inkscape:path-effect
       effect="clone_original"
       linkeditem=""
       id="path-effect40"
       is_visible="true"
       lpeversion="1"
       method="d"
       attributes=""
       css_properties=""
       allow_transforms="true" />
    <inkscape:path-effect
       effect="knot"
       id="path-effect39"
       is_visible="true"
       lpeversion="1"
       switcher_size="15.8"
       interruption_width="3.9"
       prop_to_stroke_width="true"
       add_stroke_width="inkscape_1.0_and_up"
       both="false"
       inverse_width="false"
       add_other_stroke_width="inkscape_1.0_and_up"
       crossing_points_vector="" />
    <linearGradient
       id="gradWave"
       x1="0%"
       y1="0%"
       x2="100%"
       y2="0%">
      <stop
         offset="0%"
         stop-color="#1B3CFF"
         id="stop1" />
      <stop
         offset="50%"
         stop-color="#3BA6FF"
         id="stop2" />
      <stop
         offset="100%"
         stop-color="#8B5CF6"
         id="stop3" />
    </linearGradient>
    <linearGradient
       id="gradBlue"
       x1="0%"
       y1="0%"
       x2="0%"
       y2="100%">
      <stop
         offset="0%"
         stop-color="#1B3CFF"
         id="stop4" />
      <stop
         offset="100%"
         stop-color="#3BA6FF"
         id="stop5" />
    </linearGradient>
    <linearGradient
       inkscape:collect="always"
       xlink:href="#gradWave"
       id="linearGradient21"
       x1="143.03162"
       y1="23.421556"
       x2="143.03162"
       y2="283.86716"
       gradientTransform="matrix(0.93685587,0,0,1.0674001,0,-2.2769728)"
       gradientUnits="userSpaceOnUse" />
    <linearGradient
       inkscape:collect="always"
       xlink:href="#gradWave"
       id="linearGradient39"
       x1="170.35258"
       y1="139.53706"
       x2="344.92429"
       y2="139.53706"
       gradientUnits="userSpaceOnUse" />
  </defs>
  <!-- Rounded hexagon outline (stroke-rounded) -->
  <!-- Triad spiral (subtle, not overt triskelion) -->
  <!-- Spiral arms -->
  <!-- Three "heads" -->
  <!-- Whisper wave wrapping -->
  <!-- Wordmark -->
  <g
     id="g43"
     transform="matrix(1.8003302,0,0,1.8003302,-205.61569,-33.868388)">
    <path
       d="m 256,33.723027 111,64 V 225.72303 l -111,64 -111,-64 V 97.723027 Z"
       fill="none"
       stroke="url(#gradBlue)"
       stroke-width="18"
       stroke-linejoin="round"
       stroke-linecap="round"
       id="path5"
       style="stroke:url(#linearGradient21);stroke-width:22;stroke-dasharray:none" />
    <path
       id="path31"
       style="mix-blend-mode:normal;fill:url(#linearGradient39);stroke-width:0.832845"
       d="m 254.54492,56.523437 c -4.0828,0.179975 -7.57056,4.570101 -12.67578,13.66211 -2.63338,4.689858 -5.56606,9.87452 -6.50586,11.505859 -0.9501,1.649255 -5.74785,10.161651 -10.58398,18.773434 -4.87286,8.67721 -11.06269,19.6192 -13.75,24.30469 -3.73239,6.50767 -6.29835,11.22055 -6.76368,12.67383 -0.0491,0.15326 -0.10351,0.34002 -0.10351,0.54101 0,0.51184 0.45083,0.79238 0.83984,0.75 0.16985,-0.0185 0.29404,-0.0869 0.34571,-0.11523 0.41333,-0.2265 1.34217,-1.07887 1.99218,-1.71094 12.56782,-12.22074 25.77074,-18.13962 37.67774,-17.92773 5.9535,0.10594 11.59118,1.737 16.71289,4.89844 5.12171,3.16143 9.73015,7.85915 13.58008,14.11718 4.51167,7.33371 5.23602,16.63255 2.82031,23.97852 -1.61047,4.89731 -4.59475,8.90119 -8.71094,10.96484 -1.96003,0.98266 -3.48866,1.38969 -4.41406,1.36524 -0.61693,-0.0163 -0.91241,-0.17872 -1.08984,-0.41016 -0.17743,-0.23144 -0.29322,-0.65027 -0.19532,-1.35351 0.14686,-1.05487 0.79228,-2.64094 2.02344,-4.5879 3.78753,-5.98959 5.77911,-11.97157 5.13281,-16.16992 -2.31885,-15.06372 -12.9363,-24.18554 -28.15429,-24.18554 -17.13017,0 -31.74097,11.77929 -46.69141,37.2539 -11.66515,19.87669 -14.68146,25.05381 -19.74805,33.91211 -3.34673,5.85134 -5.46138,10.09507 -6.27734,13.29102 -1.27965,5.01215 0.61734,7.53571 5.31055,9.66797 0.17909,0.0814 0.43716,0.10994 0.5625,0.125 1.69198,0.20324 8.94082,0.38543 16.66406,0.50586 9.15123,0.14269 20.15232,0.22499 28.02734,0.20117 3.92309,-0.0119 7.09886,-0.0501 8.86719,-0.1211 0.3294,-0.0132 1.46976,-0.0329 1.81445,-0.21875 0.0952,-0.0513 0.40235,-0.25094 0.40235,-0.66406 0,-0.3117 -0.19427,-0.51421 -0.22852,-0.55078 -0.32447,-0.34646 -1.73423,-1.21434 -2.46875,-1.65039 -1.24481,-0.73901 -3.90148,-2.4859 -5.83398,-3.83984 -2.19167,-1.53552 -3.15917,-2.20557 -7.625,-2.45508 -2.86445,-0.16004 -7.30636,-0.16016 -14.52344,-0.16016 -6.9895,0 -11.84322,0.0207 -14.99414,-0.21484 -1.05031,-0.0785 -1.90979,-0.18684 -2.58594,-0.32617 -0.67614,-0.13933 -1.16552,-0.31312 -1.47461,-0.49219 -0.30908,-0.17908 -0.43435,-0.33551 -0.50586,-0.51563 -0.0715,-0.18011 -0.0952,-0.43564 -0.0156,-0.82812 0.0955,-0.47098 0.34561,-1.1073 0.73242,-1.88281 0.58021,-1.16328 1.46153,-2.63978 2.52539,-4.45704 1.71374,-2.92733 6.49231,-11.18194 10.61328,-18.33007 8.96051,-15.54265 14.49719,-24.71239 19.10547,-30.83789 4.60828,-6.1255 8.26106,-9.2098 13.61523,-12.71875 9.60303,-6.29354 19.79849,-5.64792 26.12696,-1.32618 3.16423,2.16087 5.35903,5.22612 6.08593,8.83399 0.72691,3.60786 -0.001,7.79038 -2.83789,12.24023 -11.97429,18.78455 7.70782,31.544 23.19532,15.04492 27.28146,-29.06335 -14.6605,-83.286864 -50.57032,-65.74023 0.11478,-0.19648 0.14634,-0.26781 0.29102,-0.50977 0.66756,-1.11642 5.31168,-9.345 10.02539,-17.753902 8.23052,-14.682636 11.56175,-20.585091 13.21289,-22.648437 0.55038,-0.687783 0.87965,-0.897202 1.03906,-0.947266 0.15941,-0.05006 0.31431,-0.01797 0.7461,0.0957 0.24653,0.0649 0.40943,0.135993 0.67578,0.371094 0.26634,0.235101 0.61726,0.648307 1.08594,1.33789 0.93734,1.379168 2.34203,3.841281 4.71875,8.140625 2.19671,3.973725 4.77359,8.598585 5.70898,10.244141 0.93091,1.637676 3.30915,5.85948 5.28125,9.376953 1.97439,3.521539 7.15936,12.646409 11.51563,20.263669 9.51742,16.64196 14.25749,29.49507 14.33203,40.03907 0.0373,5.27199 -1.07849,9.97155 -3.34961,14.3457 -2.27113,4.37414 -5.70783,8.42725 -10.33985,12.34765 -10.18254,8.61823 -22.87036,8.27922 -30.90234,3.4375 -4.01599,-2.42085 -6.84009,-5.94309 -7.67578,-10.01367 -0.83569,-4.07057 0.27495,-8.74981 4.38281,-13.6289 5.66034,-6.72303 6.76583,-10.49999 4.23633,-15.02735 -1.10501,-1.97775 -2.73566,-3.33497 -4.7168,-4.13672 -7.78247,-3.14948 -20.56507,2.45426 -27.375,12.97266 -15.27893,23.59937 -2.24451,54.33738 26.14649,61.82617 1.05249,0.27762 6.13955,0.45077 10.98632,0.57031 4.77163,0.1177 10.76829,0.21045 17.32227,0.2793 23.22849,0.24403 54.43108,0.16838 61.3418,-0.34765 0.43496,-0.0325 1.30325,-0.0881 1.64648,-0.26954 4.99688,-2.64134 6.69086,-8.05777 4.18555,-13.28125 -0.5248,-1.09418 -6.94652,-12.46902 -12.62305,-22.43554 -10.18046,-17.87425 -15.18596,-26.81189 -16.55664,-28.41016 -0.18234,-0.21262 -0.64232,-0.73018 -1.23633,-0.49219 -0.45961,0.18415 -0.53011,0.65008 -0.54492,0.83008 -0.0457,0.55522 0.23755,2.01185 0.36524,2.875 0.23009,1.55556 0.44049,5.09498 0.44531,7.71094 0.007,3.76473 -0.0967,5.14187 3.10937,11.26953 2.08823,3.9912 5.63373,10.11632 11.54492,20.35938 3.03926,5.26647 4.55536,7.943 5.02344,9.40625 0.23405,0.73162 0.22212,1.09231 0.10352,1.44726 -0.11247,0.33659 -0.39834,0.74096 -0.83399,1.30859 -0.005,0.002 -0.0101,0.004 -0.0156,0.006 -0.01,0.004 -0.0212,0.008 -0.0332,0.0117 -0.11967,0.0402 -0.32787,0.0924 -0.59961,0.14258 -0.54349,0.10038 -1.34237,0.1981 -2.3418,0.28711 -1.33258,0.11868 -3.02742,0.22349 -5.00781,0.3125 -7.42649,0.33377 -18.86715,0.45365 -30.59375,0.38281 -11.72661,-0.0708 -23.74584,-0.33262 -32.34375,-0.76367 -3.43917,-0.17242 -6.33315,-0.37276 -8.42774,-0.5957 -1.39639,-0.14863 -2.44976,-0.31241 -3.01367,-0.46289 -10.15473,-2.70984 -17.57098,-9.92296 -21.47852,-18.37305 -2.93065,-6.33757 -3.87162,-13.36113 -2.52343,-19.64648 1.34819,-6.28536 4.9551,-11.83099 11.20703,-15.35352 2.32401,-1.30942 4.37018,-2.05432 5.76758,-2.28516 0.4658,-0.0769 0.85838,-0.0961 1.14843,-0.0723 0.29006,0.0238 0.46958,0.096 0.53321,0.13867 0.053,0.0355 0.039,0.0266 0.0449,0.0488 0.006,0.0222 0.0178,0.1068 -0.0371,0.2793 -0.10982,0.34498 -0.49839,0.97305 -1.25,1.74804 -20.90149,21.55162 3.39944,53.81524 32.76367,43.58789 30.13851,-10.49702 39.27844,-46.33338 20.36328,-78.98437 -2.93726,-5.07025 -9.32686,-16.40899 -16.49804,-29.275393 C 266.40633,67.2951 263.11954,61.296626 261.49414,59.601562 c -0.43161,-0.450112 -0.78477,-0.6672 -1.17383,-0.9375 -2.02903,-1.409685 -3.90521,-2.223065 -5.77539,-2.140625 z"
       inkscape:path-effect="#path-effect41"
       inkscape:original-d="m 254.5788,57.256899 c -3.61562,0.159381 -6.92386,4.125233 -12.06857,13.287575 -2.63419,4.6913 -5.56367,9.873053 -6.50958,11.515008 -0.9459,1.641955 -5.70731,10.086296 -10.58114,18.765218 -4.87382,8.67891 -11.0631,19.61816 -13.75375,24.30946 -4.49385,7.83532 -6.76846,12.15387 -6.76846,12.85027 0,0.15053 0.8691,-0.57139 1.93135,-1.60431 25.33436,-24.63473 53.50354,-24.13263 69.10779,1.23197 7.72936,12.56403 4.63584,30.55703 -6.18635,35.98274 -6.73128,3.37472 -8.83932,0.62657 -4.62747,-6.03405 3.77609,-5.9715 5.63067,-11.74968 5.02771,-15.66654 -2.26327,-14.70267 -12.57624,-23.56146 -27.42807,-23.56146 -16.77219,0 -31.18196,11.54179 -46.05862,36.89068 -11.6635,19.87387 -14.67748,25.05 -19.74236,33.90531 -8.40788,14.7001 -8.63837,18.58862 -1.29923,21.923 1.34233,0.60986 55.29767,1.09588 55.29767,0.49811 0,-0.10007 -1.05206,-0.80678 -2.33794,-1.57015 -1.28587,-0.76338 -3.93164,-2.50422 -5.87983,-3.86915 -3.54216,-2.48169 -3.54216,-2.48143 -21.72691,-2.48143 -23.29295,0 -22.8537,0.25422 -16.95414,-9.82324 1.71204,-2.92444 6.48684,-11.17033 10.61133,-18.32456 17.92687,-31.09545 22.17172,-36.73745 32.95608,-43.80518 19.64397,-12.87406 42.07115,2.44119 30.39577,20.75684 -11.49236,18.02852 7.16101,30.00203 22.0422,14.14886 26.79594,-28.54612 -14.77065,-82.097257 -50.0214,-64.44374 -1.83168,0.9173 -1.85179,0.82229 -0.35498,-1.68094 0.64344,-1.07608 5.15065,-9.05674 10.01572,-17.735662 13.71748,-24.470975 13.68159,-24.417018 15.82724,-23.852162 1.32852,0.34974 2.17766,1.599991 6.93444,10.204743 2.20439,3.987605 4.77178,8.593609 5.70512,10.235565 0.93334,1.641955 3.31075,5.864125 5.28342,9.382611 1.97268,3.518485 7.15372,12.634535 11.51347,20.257895 19.09194,33.38372 19.22219,51.79352 0.47887,67.65734 -20.83867,17.63726 -52.09785,-1.20607 -35.2321,-21.23829 5.48791,-6.51823 6.50567,-9.99408 4.15734,-14.19718 -5.07856,-9.08961 -22.43784,-4.09168 -30.83415,8.87699 -14.99662,23.16332 -2.21026,53.35042 25.71748,60.71702 4.08543,1.07763 88.76492,1.3512 90.76644,0.29321 4.6407,-2.45307 6.20567,-7.43627 3.86667,-12.313 -0.44428,-0.92631 -6.1143,-11.00196 -12.60064,-22.3903 -18.7135,-32.85604 -17.35984,-30.76299 -16.6063,-25.66888 0.24354,1.64645 0.44698,5.16405 0.45187,7.81661 0.0114,6.17735 -0.27823,5.55588 14.5582,31.26479 6.07871,10.5333 6.09374,10.57835 4.17797,13.06018 -1.62179,2.10101 -74.99435,1.65668 -83.08786,-0.50312 -25.95624,-6.92655 -34.41777,-42.63594 -12.96676,-54.72212 6.60989,-3.72421 11.07137,-3.08896 7.09567,1.0104 -20.3498,20.98276 3.33816,52.3621 31.99358,42.38163 29.64183,-10.32403 38.68508,-45.61337 19.9687,-77.92124 -2.94377,-5.08149 -9.33249,-16.41834 -16.50465,-29.286487 -19.04259,-34.165806 -18.43033,-33.131792 -20.4285,-34.52004 -1.97181,-1.369931 -3.67888,-2.083241 -5.32234,-2.010794 z"
       transform="matrix(0.98970985,0,0,1.0036353,3.5324006,1.3685261)" />
  </g>
</svg>
